<?xml version="1.0" encoding="UTF-8"?> <svg xmlns="http://www.w3.org/2000/svg" width="158" height="64.013" viewBox="0 0 158 64.013"><g id="Componente_1_5" data-name="Componente 1 – 5" style="isolation: isolate"><g id="Grupo_2" data-name="Grupo 2" transform="translate(69.092 13.569)"><g id="Grupo_1" data-name="Grupo 1" transform="translate(6.615 6.187)"><rect id="Rectángulo_5" data-name="Rectángulo 5" width="3.531" height="2.646" transform="translate(17.316 14.163) rotate(-27.907)" fill="#7ccbfa"></rect><rect id="Rectángulo_6" data-name="Rectángulo 6" width="3.534" height="2.65" transform="translate(12.633 16.638) rotate(-27.883)" fill="#7ccbfa"></rect><path id="Trazado_2" data-name="Trazado 2" d="M72.915,34.092l3.122-1.649,1.241,2.341-3.12,1.648Z" transform="translate(-64.964 -14.976)" fill="#7ccbfa"></path><rect id="Rectángulo_7" data-name="Rectángulo 7" width="3.532" height="2.647" transform="translate(3.41 10.534) rotate(-27.884)" fill="#7ccbfa"></rect><path id="Trazado_3" data-name="Trazado 3" d="M71.919,34.6,69.094,36.1a12.583,12.583,0,0,0,2.221,1.823l1.844-.978Z" transform="translate(-65.527 -14.658)" fill="#7ccbfa"></path><path id="Trazado_4" data-name="Trazado 4" d="M72.669,39.546A12.63,12.63,0,0,0,90.04,30.352Z" transform="translate(-65 -15.284)" fill="#7ccbfa"></path><path id="Trazado_5" data-name="Trazado 5" d="M69.075,29.46l-1.241-2.342-1.845.98a12.634,12.634,0,0,0,.26,2.86Z" transform="translate(-65.985 -15.761)" fill="#7ccbfa"></path><path id="Trazado_6" data-name="Trazado 6" d="M83.565,18.241a12.628,12.628,0,0,0-17.372,9.195Z" transform="translate(-65.954 -17.219)" fill="#7ccbfa"></path><path id="Trazado_7" data-name="Trazado 7" d="M74.276,26.791,77.4,25.14,76.158,22.8l-3.12,1.649Z" transform="translate(-64.946 -16.397)" fill="#7ccbfa"></path><path id="Trazado_8" data-name="Trazado 8" d="M82.44,22.4l3.015-1.593a12.715,12.715,0,0,0-2.221-1.824L81.2,20.059Z" transform="translate(-63.744 -16.959)" fill="#7ccbfa"></path><path id="Trazado_9" data-name="Trazado 9" d="M85.157,27.606l1.238,2.342,2.039-1.075a12.51,12.51,0,0,0-.26-2.86Z" transform="translate(-63.16 -15.924)" fill="#7ccbfa"></path><path id="Trazado_10" data-name="Trazado 10" d="M78.357,24.633l3.123-1.652-1.238-2.338-3.123,1.65Z" transform="translate(-64.345 -16.715)" fill="#7ccbfa"></path></g><path id="Trazado_11" data-name="Trazado 11" d="M98.81,37A19.735,19.735,0,1,0,86.665,49.986l5.674,10.307a3.269,3.269,0,1,0,5.7-3.138L92.327,46.777A19.541,19.541,0,0,0,98.81,37ZM86.886,44.2a14.479,14.479,0,1,1,6.923-8.653A14.381,14.381,0,0,1,86.886,44.2Z" transform="translate(-60.22 -11.827)" fill="#fff"></path></g><g id="Grupo_3" data-name="Grupo 3"><path id="Trazado_12" data-name="Trazado 12" d="M9.558,19.506a9.64,9.64,0,0,1-3.784-.741A9.182,9.182,0,0,1,.722,13.615,10.341,10.341,0,0,1,0,9.715,10.208,10.208,0,0,1,.722,5.832,9.428,9.428,0,0,1,2.731,2.751,9.074,9.074,0,0,1,5.775.722,9.838,9.838,0,0,1,9.558,0a10.074,10.074,0,0,1,3.53.564,8.79,8.79,0,0,1,2.5,1.387,6.094,6.094,0,0,1,1.481,1.7,3.223,3.223,0,0,1,.489,1.5.924.924,0,0,1-.254.68,1.825,1.825,0,0,1-.568.391,1.727,1.727,0,0,1-.563.155c-.17.015-.267.007-.293-.018a7.539,7.539,0,0,0-.9-1.6,6.3,6.3,0,0,0-1.307-1.307A5.837,5.837,0,0,0,11.9,2.575a8,8,0,0,0-2.342-.311,6.981,6.981,0,0,0-2.77.546A6.5,6.5,0,0,0,4.565,4.351,7.18,7.18,0,0,0,3.1,6.71a8.319,8.319,0,0,0-.525,3,8.308,8.308,0,0,0,.525,3A7.4,7.4,0,0,0,4.565,15.1,6.665,6.665,0,0,0,6.77,16.679a6.772,6.772,0,0,0,2.788.564,7.955,7.955,0,0,0,2.342-.312,5.833,5.833,0,0,0,1.775-.877,6.3,6.3,0,0,0,1.307-1.307,7.548,7.548,0,0,0,.9-1.6c.025-.052.123-.065.293-.04a2.438,2.438,0,0,1,.563.176,1.869,1.869,0,0,1,.568.392.918.918,0,0,1,.254.682,3.223,3.223,0,0,1-.489,1.5,6.11,6.11,0,0,1-1.481,1.7,8.815,8.815,0,0,1-2.5,1.385A9.995,9.995,0,0,1,9.558,19.506Z" fill="#7ccbfa"></path><path id="Trazado_13" data-name="Trazado 13" d="M19.323,19.152A1.25,1.25,0,0,1,18.5,18.9a1.183,1.183,0,0,1-.313-.955V1.481A1.187,1.187,0,0,1,18.5.524a1.263,1.263,0,0,1,.819-.251H19.6a1.273,1.273,0,0,1,.82.251,1.191,1.191,0,0,1,.312.957V17.945a1.187,1.187,0,0,1-.312.955,1.26,1.26,0,0,1-.82.252Z" transform="translate(2.68 0.04)" fill="#7ccbfa"></path><path id="Trazado_14" data-name="Trazado 14" d="M26.945,3.357A7.72,7.72,0,0,1,29.5.936,7.268,7.268,0,0,1,33.264,0a8.25,8.25,0,0,1,3.219.585,6.123,6.123,0,0,1,2.3,1.658,7.215,7.215,0,0,1,1.385,2.6,11.323,11.323,0,0,1,.468,3.355v9.793a1.183,1.183,0,0,1-.313.955,1.246,1.246,0,0,1-.817.252h-.275a1.257,1.257,0,0,1-.819-.252,1.187,1.187,0,0,1-.311-.955V8.349a6.689,6.689,0,0,0-1.307-4.387A4.514,4.514,0,0,0,33.107,2.38a6.363,6.363,0,0,0-3.744,1.092,7.048,7.048,0,0,0-2.38,2.848V17.986a1.187,1.187,0,0,1-.313.955,1.255,1.255,0,0,1-.819.252h-.272a1.254,1.254,0,0,1-.82-.252,1.183,1.183,0,0,1-.311-.955V.585c0-.05.081-.11.251-.176a1.714,1.714,0,0,1,.6-.1A1.609,1.609,0,0,1,26.457.78a2.858,2.858,0,0,1,.488,1.989Z" transform="translate(3.602 0)" fill="#7ccbfa"></path><path id="Trazado_15" data-name="Trazado 15" d="M43.747,10.457a7.508,7.508,0,0,0,.645,2.728,6.738,6.738,0,0,0,3.686,3.551,7.2,7.2,0,0,0,2.731.507,9.153,9.153,0,0,0,2.38-.273,6.749,6.749,0,0,0,1.755-.722,5.657,5.657,0,0,0,1.286-1.054,7.623,7.623,0,0,0,.936-1.267c.025-.026.118-.026.274,0a1.373,1.373,0,0,1,.506.215,1.843,1.843,0,0,1,.488.468,1.252,1.252,0,0,1,.215.761,2.211,2.211,0,0,1-.525,1.19A5.679,5.679,0,0,1,56.6,17.926a10.385,10.385,0,0,1-2.459,1.113,10.969,10.969,0,0,1-3.334.467,10.45,10.45,0,0,1-3.883-.7,8.7,8.7,0,0,1-3.043-1.989,9.062,9.062,0,0,1-1.971-3.062,10.594,10.594,0,0,1-.7-3.92,10.791,10.791,0,0,1,.7-3.92,9.369,9.369,0,0,1,1.952-3.122A8.963,8.963,0,0,1,46.829.742,9.323,9.323,0,0,1,50.575,0a9.2,9.2,0,0,1,3.549.663,7.636,7.636,0,0,1,2.731,1.893A8.573,8.573,0,0,1,58.611,5.52a11.32,11.32,0,0,1,.624,3.844V9.6c0,.364-.079.6-.233.7a1.554,1.554,0,0,1-.821.158Zm12.8-2.186a6.812,6.812,0,0,0-1.774-4.408,5.554,5.554,0,0,0-4.194-1.638,6.494,6.494,0,0,0-4.469,1.7,6.983,6.983,0,0,0-1.463,1.911,7.581,7.581,0,0,0-.779,2.439Z" transform="translate(6.072)" fill="#7ccbfa"></path></g><path id="Trazado_16" data-name="Trazado 16" d="M6.02,24.653a8.513,8.513,0,0,1,2.5-2.42,6.818,6.818,0,0,1,3.706-.937,7.606,7.606,0,0,1,3.218.625,6.118,6.118,0,0,1,2.2,1.676,6.874,6.874,0,0,1,1.267,2.5,11.185,11.185,0,0,1,.411,3.084v9.129a2.549,2.549,0,0,1-.683,2.047,2.631,2.631,0,0,1-1.735.564h-.587a2.822,2.822,0,0,1-1.814-.545,2.548,2.548,0,0,1-.682-2.066V30a4.527,4.527,0,0,0-.918-3A3.193,3.193,0,0,0,10.312,25.9,4.55,4.55,0,0,0,6.1,28.4v9.911a2.557,2.557,0,0,1-.68,2.047,2.636,2.636,0,0,1-1.736.564H3.094a2.812,2.812,0,0,1-1.813-.545A2.536,2.536,0,0,1,.6,38.308V22.155c0-.077.208-.2.624-.369a3.794,3.794,0,0,1,1.444-.255,4.175,4.175,0,0,1,1.073.138,2.821,2.821,0,0,1,.994.486,2.912,2.912,0,0,1,.8.955A5,5,0,0,1,6.02,24.653Z" transform="translate(0.088 3.138)" fill="#fff"></path><path id="Trazado_17" data-name="Trazado 17" d="M31.7,29.216q0-3.783-3.9-3.785a4.74,4.74,0,0,0-3.082.9,6,6,0,0,0-1.637,2.028c0,.025-.182.032-.546.02a5.142,5.142,0,0,1-1.231-.213,3,3,0,0,1-1.227-.7,1.869,1.869,0,0,1-.547-1.443,3.218,3.218,0,0,1,.527-1.735,4.824,4.824,0,0,1,1.6-1.5,9.613,9.613,0,0,1,2.692-1.073,15.7,15.7,0,0,1,3.8-.411q4.525,0,6.749,1.992a7.437,7.437,0,0,1,2.222,5.85V40.413c0,.131-.212.266-.643.408a4.5,4.5,0,0,1-1.424.216,3.213,3.213,0,0,1-2.146-.723,3.578,3.578,0,0,1-1.093-2.32,7.043,7.043,0,0,1-2.73,2.339,8.518,8.518,0,0,1-3.863.859,6.789,6.789,0,0,1-4.7-1.521,5.089,5.089,0,0,1-1.7-3.979,5.112,5.112,0,0,1,2.984-4.857q2.983-1.542,9.267-1.62ZM27.055,37.6A4.711,4.711,0,0,0,30.41,36.4,4.05,4.05,0,0,0,31.7,33.312V32.22l-1.014.04a14.162,14.162,0,0,0-4.935.779A2.358,2.358,0,0,0,24.09,35.3a2.019,2.019,0,0,0,.8,1.677A3.431,3.431,0,0,0,27.055,37.6Z" transform="translate(2.773 3.138)" fill="#fff"></path><path id="Trazado_18" data-name="Trazado 18" d="M46.7,41.266a10.722,10.722,0,0,1-4.057-.742A9.215,9.215,0,0,1,37.415,35.3a11.245,11.245,0,0,1,0-8.036A9.064,9.064,0,0,1,39.5,24.119a9.758,9.758,0,0,1,3.179-2.046,10.616,10.616,0,0,1,4.018-.742,11.165,11.165,0,0,1,3.727.547,8.337,8.337,0,0,1,2.515,1.345,5.336,5.336,0,0,1,1.426,1.7,3.634,3.634,0,0,1,.446,1.562,1.873,1.873,0,0,1-.467,1.325,3.508,3.508,0,0,1-1.014.78,3.125,3.125,0,0,1-1.035.332c-.325.039-.5.032-.525-.021a5.4,5.4,0,0,0-1.679-2.261,4.976,4.976,0,0,0-3.16-.9,5.262,5.262,0,0,0-2.087.41A4.74,4.74,0,0,0,43.208,27.3a5.411,5.411,0,0,0-1.072,1.757,6.129,6.129,0,0,0-.391,2.224,6.284,6.284,0,0,0,.391,2.242A5.384,5.384,0,0,0,43.208,35.3a4.74,4.74,0,0,0,1.638,1.151,5.262,5.262,0,0,0,2.087.41,5,5,0,0,0,3.143-.9,5.345,5.345,0,0,0,1.7-2.263c.025-.052.2-.064.508-.04a2.963,2.963,0,0,1,1.031.313,3.425,3.425,0,0,1,1.035.78,1.99,1.99,0,0,1,.467,1.4,3.385,3.385,0,0,1-.467,1.543,5.578,5.578,0,0,1-1.463,1.677,8.645,8.645,0,0,1-2.516,1.344A10.846,10.846,0,0,1,46.7,41.266Z" transform="translate(5.403 3.143)" fill="#fff"></path><path id="Trazado_19" data-name="Trazado 19" d="M56.988,40.889a2.831,2.831,0,0,1-1.794-.545,2.5,2.5,0,0,1-.7-2.066V24.154a2.573,2.573,0,0,1,.7-2.069,2.649,2.649,0,0,1,1.754-.584h.584a2.682,2.682,0,0,1,1.794.564,2.651,2.651,0,0,1,.664,2.088V38.277a2.553,2.553,0,0,1-.682,2.047,2.639,2.639,0,0,1-1.737.564Z" transform="translate(8.028 3.168)" fill="#fff"></path><path id="Trazado_20" data-name="Trazado 20" d="M101.241,24.653a8.523,8.523,0,0,1,2.5-2.42,6.825,6.825,0,0,1,3.707-.937,7.606,7.606,0,0,1,3.218.625,6.118,6.118,0,0,1,2.2,1.676,6.858,6.858,0,0,1,1.268,2.5,11.228,11.228,0,0,1,.41,3.084v9.129a2.55,2.55,0,0,1-.683,2.047,2.626,2.626,0,0,1-1.734.564h-.587a2.818,2.818,0,0,1-1.814-.545,2.544,2.544,0,0,1-.683-2.066V30a4.526,4.526,0,0,0-.917-3,3.192,3.192,0,0,0-2.594-1.093,4.543,4.543,0,0,0-4.213,2.5v9.911a2.55,2.55,0,0,1-.684,2.047,2.627,2.627,0,0,1-1.735.564h-.586a2.809,2.809,0,0,1-1.812-.545,2.54,2.54,0,0,1-.685-2.066V22.155c0-.077.208-.2.625-.369a3.792,3.792,0,0,1,1.443-.255,4.154,4.154,0,0,1,1.072.138,2.831,2.831,0,0,1,1,.486,2.91,2.91,0,0,1,.8.955A4.967,4.967,0,0,1,101.241,24.653Z" transform="translate(14.118 3.138)" fill="#fff"></path><path id="Trazado_21" data-name="Trazado 21" d="M126.919,29.216q0-3.783-3.9-3.785a4.742,4.742,0,0,0-3.082.9,6,6,0,0,0-1.637,2.028c0,.025-.181.032-.547.02a5.117,5.117,0,0,1-1.228-.213,3,3,0,0,1-1.229-.7,1.873,1.873,0,0,1-.546-1.443,3.208,3.208,0,0,1,.527-1.735,4.813,4.813,0,0,1,1.6-1.5,9.6,9.6,0,0,1,2.692-1.073,15.685,15.685,0,0,1,3.8-.411q4.525,0,6.75,1.992a7.441,7.441,0,0,1,2.222,5.85V40.413c0,.131-.213.266-.643.408a4.518,4.518,0,0,1-1.425.216,3.226,3.226,0,0,1-2.147-.723,3.594,3.594,0,0,1-1.092-2.32,7.039,7.039,0,0,1-2.728,2.339,8.521,8.521,0,0,1-3.863.859,6.787,6.787,0,0,1-4.7-1.521,5.09,5.09,0,0,1-1.7-3.979,5.113,5.113,0,0,1,2.984-4.857q2.984-1.542,9.267-1.62ZM122.276,37.6a4.71,4.71,0,0,0,3.355-1.208,4.047,4.047,0,0,0,1.288-3.084V32.22l-1.015.04a14.161,14.161,0,0,0-4.935.779,2.355,2.355,0,0,0-1.657,2.264,2.016,2.016,0,0,0,.8,1.677A3.427,3.427,0,0,0,122.276,37.6Z" transform="translate(16.803 3.138)" fill="#fff"></path><path id="Trazado_22" data-name="Trazado 22" d="M135.411,41.9a2.838,2.838,0,0,1-1.794-.545,2.5,2.5,0,0,1-.7-2.066V15.256c0-.1.207-.233.625-.39a4.108,4.108,0,0,1,1.441-.233,3.971,3.971,0,0,1,1.23.2,2.706,2.706,0,0,1,1.091.682,3.63,3.63,0,0,1,.8,1.347,6.494,6.494,0,0,1,.312,2.185V39.289a2.55,2.55,0,0,1-.683,2.047A2.635,2.635,0,0,1,136,41.9Z" transform="translate(19.584 2.156)" fill="#fff"></path><g id="Grupo_4" data-name="Grupo 4" transform="translate(109.317 51.379)"><path id="Trazado_23" data-name="Trazado 23" d="M96.831,51.727a1.372,1.372,0,0,1-1.552-1.553v-.329a1.372,1.372,0,0,1,1.552-1.551h.423a1.393,1.393,0,0,1,1.6,1.551v.329a1.394,1.394,0,0,1-1.6,1.553Z" transform="translate(-95.279 -44.264)" fill="#295ea4"></path><path id="Trazado_24" data-name="Trazado 24" d="M106.432,56.54a5.8,5.8,0,0,1-2.282-.447,5.537,5.537,0,0,1-3.046-3.1,6.224,6.224,0,0,1-.435-2.351A6.138,6.138,0,0,1,101.1,48.3a5.671,5.671,0,0,1,1.212-1.86,5.465,5.465,0,0,1,1.835-1.222,5.918,5.918,0,0,1,2.282-.436,6.067,6.067,0,0,1,2.128.341,5.339,5.339,0,0,1,1.505.835,3.673,3.673,0,0,1,.893,1.023,1.947,1.947,0,0,1,.294.905.57.57,0,0,1-.151.413,1.164,1.164,0,0,1-.342.234,1.013,1.013,0,0,1-.342.094c-.1.008-.159,0-.176-.013a4.615,4.615,0,0,0-.54-.964,3.747,3.747,0,0,0-.789-.787,3.48,3.48,0,0,0-1.069-.53,4.774,4.774,0,0,0-1.41-.188,4.214,4.214,0,0,0-1.671.329,3.923,3.923,0,0,0-1.34.929,4.3,4.3,0,0,0-.881,1.423,5.319,5.319,0,0,0,0,3.622,4.427,4.427,0,0,0,.881,1.434,4.027,4.027,0,0,0,1.329.953,4.084,4.084,0,0,0,1.682.34,4.774,4.774,0,0,0,1.41-.188,3.478,3.478,0,0,0,1.069-.529,3.748,3.748,0,0,0,.789-.787,4.644,4.644,0,0,0,.54-.964c.016-.033.075-.04.176-.025a1.506,1.506,0,0,1,.342.106,1.134,1.134,0,0,1,.342.237.559.559,0,0,1,.151.411,1.947,1.947,0,0,1-.294.905,3.67,3.67,0,0,1-.893,1.022,5.339,5.339,0,0,1-1.505.835A6.041,6.041,0,0,1,106.432,56.54Z" transform="translate(-94.485 -44.781)" fill="#7ccbfa"></path><path id="Trazado_25" data-name="Trazado 25" d="M116.663,56.54a5.919,5.919,0,0,1-2.329-.447,5.47,5.47,0,0,1-1.823-1.235,5.7,5.7,0,0,1-1.2-1.87,6.247,6.247,0,0,1-.435-2.351,6.16,6.16,0,0,1,.435-2.338,5.751,5.751,0,0,1,1.2-1.86,5.339,5.339,0,0,1,1.823-1.222,6.041,6.041,0,0,1,2.329-.436,5.855,5.855,0,0,1,2.3.447,5.493,5.493,0,0,1,1.823,1.235,5.728,5.728,0,0,1,1.2,1.87,6.215,6.215,0,0,1,.436,2.351,6.143,6.143,0,0,1-.436,2.342,5.751,5.751,0,0,1-1.2,1.856,5.314,5.314,0,0,1-1.823,1.223A6,6,0,0,1,116.663,56.54Zm0-1.339a4.093,4.093,0,0,0,1.669-.343,4.048,4.048,0,0,0,1.34-.94,4.348,4.348,0,0,0,.882-1.424,4.985,4.985,0,0,0,.318-1.811,5.07,5.07,0,0,0-.318-1.822,4.455,4.455,0,0,0-.882-1.447,4.027,4.027,0,0,0-1.327-.952,4.088,4.088,0,0,0-1.682-.341,4.166,4.166,0,0,0-1.693.341,4.039,4.039,0,0,0-1.34.941,4.308,4.308,0,0,0-.883,1.423,5,5,0,0,0-.317,1.81,5.1,5.1,0,0,0,.317,1.823,4.425,4.425,0,0,0,.883,1.446,3.941,3.941,0,0,0,1.34.952A4.148,4.148,0,0,0,116.663,55.2Z" transform="translate(-92.981 -44.781)" fill="#7ccbfa"></path><path id="Trazado_26" data-name="Trazado 26" d="M124.147,46.734a4.659,4.659,0,0,1,1.494-1.411,3.886,3.886,0,0,1,2.035-.542,4.22,4.22,0,0,1,2.292.6,3.6,3.6,0,0,1,1.423,1.8,5.08,5.08,0,0,1,1.564-1.7,4.12,4.12,0,0,1,2.409-.694,4.183,4.183,0,0,1,3.236,1.188,5.068,5.068,0,0,1,1.092,3.541v6.114a.716.716,0,0,1-.187.576.76.76,0,0,1-.495.151h-.163a.757.757,0,0,1-.5-.151.716.716,0,0,1-.188-.576V49.6q0-3.385-2.892-3.387a3.344,3.344,0,0,0-1.952.622,4.207,4.207,0,0,0-1.388,1.636v7.149a.72.72,0,0,1-.187.576.765.765,0,0,1-.5.151h-.164a.756.756,0,0,1-.493-.151.716.716,0,0,1-.189-.576v-5.9q0-3.5-2.892-3.5a3.346,3.346,0,0,0-1.95.622,4.227,4.227,0,0,0-1.388,1.636v7.149a.716.716,0,0,1-.187.576.764.764,0,0,1-.494.151h-.164a.753.753,0,0,1-.495-.151.712.712,0,0,1-.188-.576V45.133c0-.031.049-.067.153-.1a1,1,0,0,1,.364-.06.966.966,0,0,1,.694.282,1.724,1.724,0,0,1,.294,1.2Z" transform="translate(-91.247 -44.781)" fill="#7ccbfa"></path></g></g></svg> 