<?xml version="1.0" encoding="UTF-8" standalone="no"?>
<!DOCTYPE svg PUBLIC "-//W3C//DTD SVG 1.1//EN" "http://www.w3.org/Graphics/SVG/1.1/DTD/svg11.dtd">
<svg xmlns="http://www.w3.org/2000/svg" version="1.1" viewBox="0.00 0.00 777.00 163.00">
<rect fill="#ffffff" x="673.07" y="24.86" width="5.32" height="79.12" rx="0.30"/>
<circle fill="#60a5fa" cx="81.72" cy="30.46" r="4.34"/>
<circle fill="#ffffff" cx="440.72" cy="30.46" r="4.34"/>
<path fill="#ffffff" d="
  M 542.57 128.42
  C 539.72 131.27 535.32 130.65 532.70 128.06
  Q 518.37 113.88 512.19 107.66
  A 1.29 1.27 26.1 0 1 511.82 106.61
  Q 511.85 106.39 512.09 106.10
  A 0.75 0.75 0.0 0 0 512.06 105.08
  L 508.33 101.36
  A 0.65 0.65 0.0 0 0 507.52 101.27
  Q 493.98 109.79 480.39 105.74
  Q 463.25 100.64 458.03 81.83
  Q 457.61 80.31 457.72 74.28
  C 457.86 66.06 460.92 58.65 466.71 52.84
  C 472.50 47.02 479.90 43.94 488.12 43.76
  Q 494.15 43.64 495.67 44.05
  Q 514.50 49.20 519.66 66.32
  Q 523.76 79.90 515.29 93.47
  A 0.65 0.65 0.0 0 0 515.39 94.28
  L 519.12 97.99
  A 0.75 0.75 0.0 0 0 520.14 98.02
  Q 520.43 97.78 520.65 97.75
  A 1.29 1.27 63.7 0 1 521.70 98.12
  Q 527.94 104.27 542.17 118.55
  C 544.78 121.16 545.41 125.56 542.57 128.42
  Z
  M 518.91 75.22
  A 29.69 29.69 0.0 0 0 489.22 45.53
  A 29.69 29.69 0.0 0 0 459.53 75.22
  A 29.69 29.69 0.0 0 0 489.22 104.91
  A 29.69 29.69 0.0 0 0 518.91 75.22
  Z
  M 517.9691 100.2472
  A 0.33 0.33 0.0 0 0 517.9674 99.7806
  L 513.9513 95.7923
  A 0.33 0.33 0.0 0 0 513.4846 95.7940
  L 509.8909 99.4128
  A 0.33 0.33 0.0 0 0 509.8926 99.8794
  L 513.9087 103.8677
  A 0.33 0.33 0.0 0 0 514.3754 103.8660
  L 517.9691 100.2472
  Z
  M 522.6945 102.6822
  A 0.49 0.49 0.0 0 0 522.6897 101.9892
  L 521.1944 100.5147
  A 0.49 0.49 0.0 0 0 520.5015 100.5195
  L 514.6455 106.4578
  A 0.49 0.49 0.0 0 0 514.6503 107.1508
  L 516.1456 108.6253
  A 0.49 0.49 0.0 0 0 516.8385 108.6205
  L 522.6945 102.6822
  Z
  M 524.28 104.08
  L 518.19 110.15
  A 0.35 0.35 0.0 0 0 518.19 110.65
  L 534.34 126.86
  A 4.81 4.50 45.1 0 0 540.92 127.09
  L 541.13 126.88
  A 4.81 4.50 45.1 0 0 540.92 120.29
  L 524.77 104.08
  A 0.35 0.35 0.0 0 0 524.28 104.08
  Z"
/>
<path fill="#60a5fa" d="
  M 13.74 76.19
  C 13.72 60.08 24.83 48.51 41.20 47.97
  Q 54.74 47.53 62.78 57.71
  A 0.63 0.62 55.6 0 1 62.61 58.64
  L 59.21 60.62
  A 0.46 0.44 -32.5 0 1 58.63 60.50
  Q 53.74 54.07 45.60 53.06
  C 30.24 51.13 19.17 61.08 19.18 76.19
  C 19.20 91.29 30.29 101.22 45.65 99.26
  Q 53.79 98.22 58.67 91.79
  A 0.46 0.44 32.4 0 1 59.25 91.67
  L 62.65 93.64
  A 0.63 0.62 -55.8 0 1 62.82 94.57
  Q 54.80 104.76 41.26 104.35
  C 24.89 103.85 13.76 92.31 13.74 76.19
  Z"
/>
<path fill="#60a5fa" d="
  M 112.44 59.31
  C 118.92 48.99 130.58 46.01 141.79 48.94
  C 152.18 51.66 156.61 61.09 156.62 71.51
  Q 156.63 76.00 156.60 103.72
  A 0.26 0.25 -0.0 0 1 156.34 103.97
  L 151.57 103.97
  A 0.28 0.27 0.0 0 1 151.29 103.70
  Q 151.28 84.47 151.30 73.75
  C 151.31 65.30 149.44 56.47 140.14 53.74
  C 129.58 50.64 118.05 54.32 113.76 64.77
  Q 111.98 69.09 112.08 79.02
  Q 112.23 93.32 112.13 103.78
  A 0.21 0.20 -0.0 0 1 111.92 103.98
  L 107.05 103.98
  A 0.23 0.22 0.0 0 1 106.82 103.76
  L 106.82 48.59
  A 0.26 0.26 0.0 0 1 107.08 48.33
  L 111.62 48.33
  A 0.29 0.29 0.0 0 1 111.91 48.62
  L 111.91 59.15
  A 0.29 0.29 0.0 0 0 112.44 59.31
  Z"
/>
<path fill="#60a5fa" d="
  M 177.76 78.12
  Q 178.56 89.33 187.06 95.40
  C 196.16 101.90 211.24 101.00 218.68 92.27
  A 0.41 0.41 0.0 0 1 219.28 92.25
  L 221.85 94.82
  A 0.64 0.64 0.0 0 1 221.87 95.70
  C 212.92 105.68 196.34 107.13 185.13 100.03
  Q 174.85 93.52 172.87 81.00
  C 171.03 69.36 175.70 56.89 186.21 51.19
  C 197.90 44.85 212.75 47.80 220.57 58.85
  Q 225.80 66.24 225.68 76.75
  A 0.69 0.69 0.0 0 1 224.99 77.43
  L 178.40 77.43
  A 0.64 0.64 0.0 0 0 177.76 78.12
  Z
  M 178.02 73.29
  L 220.26 73.29
  A 0.03 0.03 0.0 0 0 220.29 73.26
  L 220.29 73.19
  A 21.08 20.58 0.0 0 0 199.21 52.61
  L 199.07 52.61
  A 21.08 20.58 -0.0 0 0 177.99 73.19
  L 177.99 73.26
  A 0.03 0.03 0.0 0 0 178.02 73.29
  Z"
/>
<path fill="#ffffff" d="
  M 249.92 59.15
  A 0.29 0.29 0.0 0 0 250.45 59.31
  C 256.94 48.99 268.60 46.01 279.81 48.95
  C 290.20 51.68 294.62 61.11 294.63 71.53
  Q 294.63 76.02 294.59 103.74
  A 0.26 0.25 0.0 0 1 294.33 103.99
  L 289.56 103.99
  A 0.28 0.27 0.0 0 1 289.28 103.72
  Q 289.28 84.49 289.31 73.77
  C 289.32 65.32 287.45 56.48 278.16 53.75
  C 267.60 50.64 256.06 54.32 251.77 64.77
  Q 249.99 69.09 250.08 79.02
  Q 250.22 93.32 250.12 103.78
  A 0.21 0.20 0.0 0 1 249.91 103.98
  L 245.04 103.97
  A 0.23 0.22 0.0 0 1 244.81 103.75
  L 244.84 48.58
  A 0.26 0.26 0.0 0 1 245.10 48.32
  L 249.64 48.32
  A 0.29 0.29 0.0 0 1 249.93 48.62
  L 249.92 59.15
  Z"
/>
<path fill="#ffffff" d="
  M 351.65 95.09
  A 0.26 0.26 0.0 0 0 351.18 94.95
  C 345.34 103.38 336.59 105.16 326.93 104.10
  C 318.72 103.20 311.53 97.53 311.59 88.67
  C 311.67 77.99 319.77 73.41 329.52 73.08
  Q 334.95 72.89 350.86 72.97
  A 0.55 0.55 0.0 0 0 351.41 72.43
  Q 351.52 68.87 351.34 66.51
  C 350.60 56.63 343.96 52.49 334.42 52.62
  Q 324.11 52.77 315.81 59.47
  A 0.33 0.32 55.5 0 1 315.33 59.38
  L 313.29 55.84
  A 0.22 0.22 0.0 0 1 313.34 55.56
  C 321.66 48.40 336.44 45.45 346.42 50.03
  Q 356.56 54.69 356.71 68.03
  Q 356.85 79.89 356.75 103.68
  A 0.31 0.31 0.0 0 1 356.44 103.99
  L 351.98 103.99
  A 0.33 0.33 0.0 0 1 351.65 103.66
  L 351.65 95.09
  Z
  M 350.72 77.12
  Q 341.11 77.13 332.00 77.14
  C 324.50 77.14 316.69 79.54 316.92 88.70
  C 317.09 95.14 321.93 98.79 328.05 99.68
  C 338.26 101.18 347.17 97.70 351.35 87.72
  A 1.13 1.11 57.0 0 0 351.44 87.28
  L 351.44 77.83
  A 0.71 0.71 0.0 0 0 350.72 77.12
  Z"
/>
<path fill="#ffffff" d="
  M 378.18 76.18
  C 378.19 91.28 389.28 101.22 404.64 99.26
  Q 412.78 98.23 417.66 91.80
  A 0.46 0.44 32.4 0 1 418.24 91.68
  L 421.64 93.65
  A 0.63 0.62 -55.7 0 1 421.81 94.58
  Q 413.79 104.77 400.25 104.35
  C 383.88 103.85 372.75 92.29 372.74 76.18
  C 372.73 60.06 383.84 48.50 400.21 47.97
  Q 413.76 47.54 421.79 57.72
  A 0.63 0.62 55.7 0 1 421.62 58.65
  L 418.22 60.62
  A 0.46 0.44 -32.5 0 1 417.64 60.50
  Q 412.75 54.08 404.62 53.06
  C 389.25 51.12 378.17 61.07 378.18 76.18
  Z"
/>
<path fill="#ffffff" d="
  M 544.15 59.16
  A 0.29 0.29 0.0 0 0 544.68 59.32
  C 551.16 49.00 562.83 46.02 574.04 48.95
  C 584.43 51.67 588.86 61.10 588.87 71.52
  Q 588.88 76.01 588.86 103.74
  A 0.26 0.25 -0.0 0 1 588.60 103.99
  L 583.82 103.99
  A 0.28 0.27 -0.0 0 1 583.54 103.72
  Q 583.53 84.48 583.55 73.76
  C 583.56 65.31 581.69 56.48 572.39 53.75
  C 561.83 50.65 550.29 54.33 546.00 64.78
  Q 544.22 69.10 544.32 79.04
  Q 544.48 93.34 544.38 103.80
  A 0.21 0.20 -0.0 0 1 544.17 104.00
  L 539.30 104.00
  A 0.23 0.22 -0.0 0 1 539.07 103.78
  L 539.06 48.60
  A 0.26 0.26 0.0 0 1 539.32 48.34
  L 543.86 48.34
  A 0.29 0.29 0.0 0 1 544.15 48.63
  L 544.15 59.16
  Z"
/>
<path fill="#ffffff" d="
  M 645.68 94.95
  C 639.84 103.38 631.09 105.16 621.43 104.10
  C 613.22 103.20 606.03 97.53 606.09 88.67
  C 606.17 77.99 614.27 73.41 624.02 73.08
  Q 629.45 72.89 645.36 72.97
  A 0.55 0.55 0.0 0 0 645.91 72.43
  Q 646.02 68.87 645.84 66.51
  C 645.10 56.63 638.46 52.49 628.92 52.62
  Q 618.61 52.77 610.31 59.47
  A 0.33 0.32 55.5 0 1 609.83 59.38
  L 607.79 55.84
  A 0.22 0.22 0.0 0 1 607.84 55.56
  C 616.16 48.40 630.94 45.45 640.92 50.03
  Q 651.06 54.69 651.21 68.03
  Q 651.35 79.89 651.25 103.68
  A 0.31 0.31 0.0 0 1 650.94 103.99
  L 646.48 103.99
  A 0.33 0.33 0.0 0 1 646.15 103.66
  L 646.15 95.09
  A 0.26 0.26 0.0 0 0 645.68 94.95
  Z
  M 645.22 77.11
  Q 635.61 77.13 626.50 77.14
  C 619.00 77.14 611.19 79.54 611.42 88.71
  C 611.59 95.15 616.43 98.79 622.55 99.68
  C 632.76 101.18 641.67 97.70 645.85 87.71
  A 1.13 1.11 57.0 0 0 645.94 87.27
  L 645.94 77.82
  A 0.71 0.71 0.0 0 0 645.22 77.11
  Z"
/>
<rect fill="#60a5fa" x="79.07" y="48.33" width="5.32" height="55.66" rx="0.31"/>
<rect fill="#ffffff" x="438.07" y="48.34" width="5.32" height="55.66" rx="0.30"/>
<path fill="#ffffff" d="
  M 515.27 75.10
  A 26.05 26.05 0.0 0 1 489.22 101.15
  A 26.05 26.05 0.0 0 1 463.17 75.10
  A 26.05 26.05 0.0 0 1 489.22 49.05
  A 26.05 26.05 0.0 0 1 515.27 75.10
  Z
  M 513.22 75.25
  A 24.01 24.01 0.0 0 0 489.21 51.24
  A 24.01 24.01 0.0 0 0 465.20 75.25
  A 24.01 24.01 0.0 0 0 489.21 99.26
  A 24.01 24.01 0.0 0 0 513.22 75.25
  Z"
/>
<path fill="#ffffff" d="
  M 696.74 94.63
  C 696.73 101.37 704.11 103.93 708.70 99.29
  A 0.39 0.38 -22.7 0 1 709.36 99.56
  L 709.36 100.24
  A 1.46 1.46 0.0 0 1 708.58 101.53
  Q 700.27 105.96 695.74 98.25
  Q 695.08 97.11 695.08 94.63
  Q 695.09 92.14 695.76 91.01
  Q 700.33 83.32 708.62 87.79
  A 1.46 1.46 0.0 0 1 709.39 89.09
  L 709.39 89.77
  A 0.39 0.38 23.0 0 1 708.72 90.03
  C 704.16 85.37 696.76 87.89 696.74 94.63
  Z"
/>
<path fill="#ffffff" d="
  M 729.36 94.65
  A 8.45 8.45 0.0 0 1 720.91 103.10
  A 8.45 8.45 0.0 0 1 712.46 94.65
  A 8.45 8.45 0.0 0 1 720.91 86.20
  A 8.45 8.45 0.0 0 1 729.36 94.65
  Z
  M 720.9200 87.6000
  A 7.05 6.73 -90.0 0 0 714.1900 94.6500
  A 7.05 6.73 -90.0 0 0 720.9200 101.7000
  A 7.05 6.73 -90.0 0 0 727.6500 94.6500
  A 7.05 6.73 -90.0 0 0 720.9200 87.6000
  Z"
/>
<path fill="#ffffff" d="
  M 760.03 102.49
  Q 759.95 99.83 760.02 93.81
  Q 760.10 87.72 754.54 87.66
  C 749.99 87.61 748.60 91.29 748.65 95.59
  Q 748.69 100.34 748.68 102.38
  A 0.60 0.60 0.0 0 1 748.08 102.97
  L 747.55 102.97
  A 0.51 0.51 0.0 0 1 747.04 102.47
  Q 747.04 101.66 747.09 94.87
  C 747.13 90.32 745.66 86.86 740.71 87.74
  Q 735.98 88.58 735.79 93.79
  Q 735.63 97.90 735.78 102.39
  A 0.56 0.55 -1.0 0 1 735.22 102.96
  L 734.72 102.96
  A 0.59 0.59 0.0 0 1 734.13 102.37
  L 734.14 86.95
  A 0.78 0.78 0.0 0 1 734.91 86.18
  L 734.94 86.18
  A 0.73 0.73 0.0 0 1 735.64 86.91
  L 735.63 88.93
  A 0.30 0.30 0.0 0 0 736.17 89.11
  C 739.08 85.29 745.25 84.89 747.84 89.51
  A 0.42 0.41 -41.4 0 0 748.53 89.55
  Q 752.28 84.63 757.94 86.80
  Q 761.06 87.99 761.47 92.01
  Q 761.70 94.24 761.58 102.48
  A 0.53 0.53 0.0 0 1 761.05 103.01
  L 760.56 103.01
  A 0.53 0.53 0.0 0 1 760.03 102.49
  Z"
/>
<circle fill="#ffffff" cx="690.93" cy="101.77" r="1.31"/>
<path fill="#60a5fa" d="
  M 391.88 118.37
  Q 392.89 119.08 392.91 119.09
  Q 393.76 119.50 394.14 119.28
  Q 395.07 118.77 395.49 117.37
  A 0.36 0.36 0.0 0 1 395.87 117.12
  L 396.27 117.17
  A 0.18 0.17 7.7 0 1 396.43 117.37
  Q 395.98 120.91 393.10 120.36
  A 2.18 2.12 67.7 0 1 392.22 119.98
  Q 391.25 119.25 391.16 119.18
  Q 390.15 118.47 390.12 118.46
  Q 389.27 118.05 388.89 118.27
  Q 387.96 118.78 387.54 120.18
  A 0.36 0.36 0.0 0 1 387.16 120.43
  L 386.76 120.38
  A 0.18 0.17 7.7 0 1 386.60 120.18
  Q 387.05 116.64 389.93 117.19
  A 2.18 2.12 67.7 0 1 390.81 117.58
  Q 391.78 118.31 391.88 118.37
  Z"
/>
<path fill="#60a5fa" d="
  M 319.53 139.46
  L 331.64 139.46
  A 0.58 0.57 90.0 0 1 332.21 140.04
  L 332.21 140.36
  A 0.62 0.62 0.0 0 1 331.59 140.98
  L 316.68 140.98
  A 0.69 0.69 0.0 0 1 316.17 139.82
  Q 316.76 139.16 325.99 129.99
  C 334.86 121.17 323.71 115.60 317.10 121.35
  A 0.79 0.78 -38.7 0 1 315.96 121.23
  L 315.93 121.19
  A 0.86 0.86 0.0 0 1 316.13 119.96
  Q 321.55 116.29 326.77 118.06
  C 332.88 120.12 331.55 126.63 327.80 130.32
  Q 319.84 138.15 319.25 138.88
  A 0.36 0.36 0.0 0 0 319.53 139.46
  Z"
/>
<path fill="#60a5fa" d="
  M 349.04 117.67
  A 0.56 0.55 -86.8 0 1 349.59 118.29
  L 349.55 118.69
  A 0.56 0.56 0.0 0 1 348.99 119.19
  L 338.91 119.19
  A 0.34 0.34 0.0 0 0 338.57 119.50
  L 337.72 127.21
  A 0.24 0.23 2.0 0 0 337.97 127.47
  C 341.59 127.26 346.89 127.22 349.40 130.23
  C 351.74 133.05 350.81 138.60 347.32 140.06
  Q 340.62 142.86 334.97 138.59
  A 0.93 0.92 -59.1 0 1 334.69 137.45
  L 334.73 137.38
  A 0.62 0.62 0.0 0 1 335.67 137.16
  Q 339.79 140.47 345.21 139.23
  C 349.35 138.29 350.15 133.33 347.30 130.53
  C 345.38 128.66 339.58 128.87 336.59 129.00
  A 0.58 0.58 0.0 0 1 335.99 128.36
  L 337.10 118.26
  A 0.68 0.67 3.3 0 1 337.77 117.67
  L 349.04 117.67
  Z"
/>
<path fill="#60a5fa" d="
  M 364.47 126.79
  A 0.62 0.61 58.3 0 1 363.56 126.57
  L 363.53 126.50
  A 0.83 0.83 0.0 0 1 363.80 125.45
  Q 367.18 123.12 371.48 123.59
  C 376.11 124.11 376.89 127.39 376.87 131.75
  Q 376.84 137.59 376.87 140.29
  A 0.70 0.69 85.8 0 1 376.27 140.99
  Q 375.87 141.04 375.43 140.78
  Q 374.94 140.50 375.18 139.63
  Q 375.42 138.78 375.39 138.71
  A 0.37 0.36 -35.6 0 0 374.77 138.61
  Q 372.28 141.62 367.51 141.00
  C 361.32 140.19 361.00 132.26 367.26 131.49
  Q 370.19 131.13 374.69 131.36
  A 0.48 0.47 2.4 0 0 375.19 130.91
  C 375.52 123.88 368.63 123.72 364.47 126.79
  Z
  M 374.59 132.61
  Q 371.24 132.51 368.26 132.68
  Q 364.14 132.92 364.43 136.64
  A 2.99 2.99 0.0 0 0 366.50 139.25
  Q 371.55 140.86 374.44 137.19
  C 375.34 136.04 375.26 134.53 375.21 133.22
  A 0.63 0.63 0.0 0 0 374.59 132.61
  Z"
/>
<path fill="#60a5fa" d="
  M 399.32 140.46
  A 0.54 0.54 0.0 0 1 398.76 140.99
  L 398.12 140.97
  A 0.49 0.48 0.7 0 1 397.65 140.50
  C 397.57 138.09 398.50 129.57 396.60 126.96
  Q 394.64 124.27 390.21 125.27
  Q 385.64 126.30 385.50 131.54
  Q 385.37 135.99 385.47 140.50
  A 0.46 0.46 0.0 0 1 385.01 140.97
  L 384.20 140.97
  A 0.41 0.41 0.0 0 1 383.79 140.56
  L 383.79 124.15
  A 0.56 0.56 0.0 0 1 384.35 123.59
  L 384.86 123.59
  A 0.51 0.51 0.0 0 1 385.37 124.10
  L 385.37 126.44
  A 0.28 0.28 0.0 0 0 385.89 126.60
  C 388.48 122.78 394.94 122.29 397.92 125.95
  Q 399.37 127.74 399.36 132.02
  Q 399.35 138.89 399.32 140.46
  Z"
/>
<path fill="#60a5fa" d="
  M 421.63 132.30
  A 8.80 8.80 0.0 0 1 412.83 141.10
  A 8.80 8.80 0.0 0 1 404.03 132.30
  A 8.80 8.80 0.0 0 1 412.83 123.50
  A 8.80 8.80 0.0 0 1 421.63 132.30
  Z
  M 412.8556 124.9700
  A 7.34 7.01 -89.8 0 0 405.8200 132.2855
  A 7.34 7.01 -89.8 0 0 412.8044 139.6500
  A 7.34 7.01 -89.8 0 0 419.8400 132.3345
  A 7.34 7.01 -89.8 0 0 412.8556 124.9700
  Z"
/>
<path fill="#60a5fa" d="
  M 436.85 124.82
  A 0.73 0.72 -62.0 0 1 437.15 125.81
  L 437.06 125.97
  A 0.68 0.68 0.0 0 1 436.10 126.22
  C 434.15 124.96 428.25 123.87 426.87 126.93
  C 425.03 131.00 431.11 131.58 434.26 132.22
  C 438.66 133.10 439.42 138.61 435.48 140.24
  Q 430.12 142.44 424.86 139.36
  A 0.89 0.88 25.7 0 1 424.48 138.28
  L 424.52 138.19
  A 0.61 0.61 0.0 0 1 425.41 137.90
  Q 429.77 140.59 434.34 139.19
  A 2.85 2.85 0.0 0 0 436.30 135.95
  C 435.85 133.50 431.50 133.14 428.08 132.32
  C 425.08 131.61 423.84 127.95 425.85 125.55
  C 428.33 122.57 433.81 123.25 436.85 124.82
  Z"
/>
<circle fill="#60a5fa" cx="302.25" cy="132.06" r="1.39"/>
<circle fill="#60a5fa" cx="451.76" cy="132.07" r="1.39"/>
</svg>
