<?xml version="1.0" standalone="no"?>
<!DOCTYPE svg PUBLIC "-//W3C//DTD SVG 20010904//EN"
 "http://www.w3.org/TR/2001/REC-SVG-20010904/DTD/svg10.dtd">
<svg version="1.0" xmlns="http://www.w3.org/2000/svg"
 width="16.000000pt" height="16.000000pt" viewBox="0 0 16.000000 16.000000"
 preserveAspectRatio="xMidYMid meet">

<g transform="translate(0.000000,16.000000) scale(0.100000,-0.100000)"
fill="#000000" stroke="none">
<path d="M46 121 c-26 -29 -16 -53 31 -77 l41 -22 -1 21 c0 12 3 30 7 39 5 11
0 24 -13 37 -26 26 -43 26 -65 2z m58 -14 c11 -18 0 -47 -21 -54 -12 -4 -43
23 -43 37 0 14 31 41 43 37 6 -2 15 -11 21 -20z"/>
</g>
</svg>
